<?xml version="1.0" encoding="UTF-8" standalone="no"?><svg xmlns="http://www.w3.org/2000/svg" xmlns:xlink="http://www.w3.org/1999/xlink" contentScriptType="application/ecmascript" contentStyleType="text/css" height="308px" preserveAspectRatio="none" style="width:386px;height:308px;" version="1.1" viewBox="0 0 386 308" width="386px" zoomAndPan="magnify"><defs><filter height="300%" id="fbkdg7vfaq0jl" width="300%" x="-1" y="-1"><feGaussianBlur result="blurOut" stdDeviation="2.0"/><feColorMatrix in="blurOut" result="blurOut2" type="matrix" values="0 0 0 0 0 0 0 0 0 0 0 0 0 0 0 0 0 0 .4 0"/><feOffset dx="4.0" dy="4.0" in="blurOut2" result="blurOut3"/><feBlend in="SourceGraphic" in2="blurOut3" mode="normal"/></filter></defs><g><ellipse cx="140.25" cy="20" fill="#000000" filter="url(#fbkdg7vfaq0jl)" rx="10" ry="10" style="stroke: none; stroke-width: 1.0;"/><rect fill="#FEFECE" filter="url(#fbkdg7vfaq0jl)" height="33.9688" rx="12.5" ry="12.5" style="stroke: #A80036; stroke-width: 1.5;" width="80" x="100.25" y="50"/><text fill="#000000" font-family="sans-serif" font-size="12" lengthAdjust="spacingAndGlyphs" textLength="60" x="110.25" y="71.1387">插入或更新</text><polygon fill="#FEFECE" filter="url(#fbkdg7vfaq0jl)" points="79.75,103.9688,200.75,103.9688,212.75,115.9688,200.75,127.9688,79.75,127.9688,67.75,115.9688,79.75,103.9688" style="stroke: #A80036; stroke-width: 1.5;"/><text fill="#000000" font-family="sans-serif" font-size="11" lengthAdjust="spacingAndGlyphs" textLength="121" x="79.75" y="119.7769">非聚集索引页在缓冲池中</text><text fill="#000000" font-family="sans-serif" font-size="11" lengthAdjust="spacingAndGlyphs" textLength="20" x="47.75" y="113.3745">yes</text><text fill="#000000" font-family="sans-serif" font-size="11" lengthAdjust="spacingAndGlyphs" textLength="14" x="212.75" y="113.3745">no</text><rect fill="#FEFECE" filter="url(#fbkdg7vfaq0jl)" height="33.9688" rx="12.5" ry="12.5" style="stroke: #A80036; stroke-width: 1.5;" width="68" x="10" y="137.9688"/><text fill="#000000" font-family="sans-serif" font-size="12" lengthAdjust="spacingAndGlyphs" textLength="48" x="20" y="159.1074">直接插入</text><rect fill="#FEFECE" filter="url(#fbkdg7vfaq0jl)" height="33.9688" rx="12.5" ry="12.5" style="stroke: #A80036; stroke-width: 1.5;" width="181" x="146" y="137.9688"/><text fill="#000000" font-family="sans-serif" font-size="12" lengthAdjust="spacingAndGlyphs" textLength="161" x="156" y="159.1074">放入一个Insert Buffer对象中</text><rect fill="#FEFECE" filter="url(#fbkdg7vfaq0jl)" height="33.9688" rx="12.5" ry="12.5" style="stroke: #A80036; stroke-width: 1.5;" width="277" x="98" y="191.9375"/><text fill="#000000" font-family="sans-serif" font-size="12" lengthAdjust="spacingAndGlyphs" textLength="257" x="108" y="213.0762">定时Insert Buffer和辅助索引叶子节点合并操作</text><polygon fill="#FEFECE" filter="url(#fbkdg7vfaq0jl)" points="140.25,231.9063,152.25,243.9063,140.25,255.9063,128.25,243.9063,140.25,231.9063" style="stroke: #A80036; stroke-width: 1.5;"/><ellipse cx="140.25" cy="286.9063" fill="#FFFFFF" filter="url(#fbkdg7vfaq0jl)" rx="11" ry="11" style="stroke: #000000; stroke-width: 1.0;"/><ellipse cx="140.25" cy="286.9063" fill="#000000" rx="6" ry="6" style="stroke: #7F7F7F; stroke-width: 1.0;"/><line style="stroke: #A80036; stroke-width: 1.5;" x1="140.25" x2="140.25" y1="30" y2="50"/><polygon fill="#A80036" points="136.25,40,140.25,50,144.25,40,140.25,44" style="stroke: #A80036; stroke-width: 1.0;"/><line style="stroke: #A80036; stroke-width: 1.5;" x1="236.5" x2="236.5" y1="171.9375" y2="191.9375"/><polygon fill="#A80036" points="232.5,181.9375,236.5,191.9375,240.5,181.9375,236.5,185.9375" style="stroke: #A80036; stroke-width: 1.0;"/><line style="stroke: #A80036; stroke-width: 1.5;" x1="67.75" x2="44" y1="115.9688" y2="115.9688"/><line style="stroke: #A80036; stroke-width: 1.5;" x1="44" x2="44" y1="115.9688" y2="137.9688"/><polygon fill="#A80036" points="40,127.9688,44,137.9688,48,127.9688,44,131.9688" style="stroke: #A80036; stroke-width: 1.0;"/><line style="stroke: #A80036; stroke-width: 1.5;" x1="212.75" x2="236.5" y1="115.9688" y2="115.9688"/><line style="stroke: #A80036; stroke-width: 1.5;" x1="236.5" x2="236.5" y1="115.9688" y2="137.9688"/><polygon fill="#A80036" points="232.5,127.9688,236.5,137.9688,240.5,127.9688,236.5,131.9688" style="stroke: #A80036; stroke-width: 1.0;"/><line style="stroke: #A80036; stroke-width: 1.5;" x1="44" x2="44" y1="171.9375" y2="243.9063"/><line style="stroke: #A80036; stroke-width: 1.5;" x1="44" x2="128.25" y1="243.9063" y2="243.9063"/><polygon fill="#A80036" points="118.25,239.9063,128.25,243.9063,118.25,247.9063,122.25,243.9063" style="stroke: #A80036; stroke-width: 1.0;"/><line style="stroke: #A80036; stroke-width: 1.5;" x1="236.5" x2="236.5" y1="225.9063" y2="243.9063"/><line style="stroke: #A80036; stroke-width: 1.5;" x1="236.5" x2="152.25" y1="243.9063" y2="243.9063"/><polygon fill="#A80036" points="162.25,239.9063,152.25,243.9063,162.25,247.9063,158.25,243.9063" style="stroke: #A80036; stroke-width: 1.0;"/><line style="stroke: #A80036; stroke-width: 1.5;" x1="140.25" x2="140.25" y1="83.9688" y2="103.9688"/><polygon fill="#A80036" points="136.25,93.9688,140.25,103.9688,144.25,93.9688,140.25,97.9688" style="stroke: #A80036; stroke-width: 1.0;"/><line style="stroke: #A80036; stroke-width: 1.5;" x1="140.25" x2="140.25" y1="255.9063" y2="275.9063"/><polygon fill="#A80036" points="136.25,265.9063,140.25,275.9063,144.25,265.9063,140.25,269.9063" style="stroke: #A80036; stroke-width: 1.0;"/><!--
@startuml
start
:插入或更新;
if (非聚集索引页在缓冲池中) then (yes)
    :直接插入;
else (no)
    :放入一个Insert Buffer对象中;
    :定时Insert Buffer和辅助索引叶子节点合并操作;
endif
stop
@enduml

PlantUML version 1.2019.08(Sat Jul 13 19:25:14 UTC 2019)
(GPL source distribution)
Java Runtime: Java(TM) SE Runtime Environment
JVM: Java HotSpot(TM) 64-Bit Server VM
Java Version: 1.7.0_25-b15
Operating System: Linux
Default Encoding: UTF-8
Language: en
Country: US
--></g></svg>