<?xml version="1.0" encoding="UTF-8" standalone="no"?><svg xmlns="http://www.w3.org/2000/svg" xmlns:xlink="http://www.w3.org/1999/xlink" contentScriptType="application/ecmascript" contentStyleType="text/css" height="244px" preserveAspectRatio="none" style="width:336px;height:244px;" version="1.1" viewBox="0 0 336 244" width="336px" zoomAndPan="magnify"><defs><filter height="300%" id="fzislkmaqnas1" width="300%" x="-1" y="-1"><feGaussianBlur result="blurOut" stdDeviation="2.0"/><feColorMatrix in="blurOut" result="blurOut2" type="matrix" values="0 0 0 0 0 0 0 0 0 0 0 0 0 0 0 0 0 0 .4 0"/><feOffset dx="4.0" dy="4.0" in="blurOut2" result="blurOut3"/><feBlend in="SourceGraphic" in2="blurOut3" mode="normal"/></filter></defs><g><ellipse cx="80" cy="20" fill="#000000" filter="url(#fzislkmaqnas1)" rx="10" ry="10" style="stroke: none; stroke-width: 1.0;"/><path d="M134,54.418 L134,62.9844 L114,66.9844 L134,70.9844 L134,79.5508 A0,0 0 0 0 134,79.5508 L324,79.5508 A0,0 0 0 0 324,79.5508 L324,64.418 L314,54.418 L134,54.418 A0,0 0 0 0 134,54.418 " fill="#FBFB77" filter="url(#fzislkmaqnas1)" style="stroke: #A80036; stroke-width: 1.0;"/><path d="M314,54.418 L314,64.418 L324,64.418 L314,54.418 " fill="#FBFB77" style="stroke: #A80036; stroke-width: 1.0;"/><text fill="#000000" font-family="sans-serif" font-size="13" lengthAdjust="spacingAndGlyphs" textLength="169" x="140" y="71.4849">这时候数据一定在缓冲池中了</text><rect fill="#FEFECE" filter="url(#fzislkmaqnas1)" height="33.9688" rx="12.5" ry="12.5" style="stroke: #A80036; stroke-width: 1.5;" width="68" x="46" y="50"/><text fill="#000000" font-family="sans-serif" font-size="12" lengthAdjust="spacingAndGlyphs" textLength="48" x="56" y="71.1387">读出数据</text><rect fill="#FEFECE" filter="url(#fzislkmaqnas1)" height="33.9688" rx="12.5" ry="12.5" style="stroke: #A80036; stroke-width: 1.5;" width="128" x="16" y="103.9688"/><text fill="#000000" font-family="sans-serif" font-size="12" lengthAdjust="spacingAndGlyphs" textLength="108" x="26" y="125.1074">更新缓冲池中的数据</text><rect fill="#FEFECE" filter="url(#fzislkmaqnas1)" height="33.9688" rx="12.5" ry="12.5" style="stroke: #A80036; stroke-width: 1.5;" width="140" x="10" y="157.9375"/><text fill="#000000" font-family="sans-serif" font-size="12" lengthAdjust="spacingAndGlyphs" textLength="120" x="20" y="179.0762">满足条件，刷新回磁盘</text><ellipse cx="80" cy="222.9063" fill="#FFFFFF" filter="url(#fzislkmaqnas1)" rx="11" ry="11" style="stroke: #000000; stroke-width: 1.0;"/><ellipse cx="80" cy="222.9063" fill="#000000" rx="6" ry="6" style="stroke: #7F7F7F; stroke-width: 1.0;"/><line style="stroke: #A80036; stroke-width: 1.5;" x1="80" x2="80" y1="30" y2="50"/><polygon fill="#A80036" points="76,40,80,50,84,40,80,44" style="stroke: #A80036; stroke-width: 1.0;"/><line style="stroke: #A80036; stroke-width: 1.5;" x1="80" x2="80" y1="83.9688" y2="103.9688"/><polygon fill="#A80036" points="76,93.9688,80,103.9688,84,93.9688,80,97.9688" style="stroke: #A80036; stroke-width: 1.0;"/><line style="stroke: #A80036; stroke-width: 1.5;" x1="80" x2="80" y1="137.9375" y2="157.9375"/><polygon fill="#A80036" points="76,147.9375,80,157.9375,84,147.9375,80,151.9375" style="stroke: #A80036; stroke-width: 1.0;"/><line style="stroke: #A80036; stroke-width: 1.5;" x1="80" x2="80" y1="191.9063" y2="211.9063"/><polygon fill="#A80036" points="76,201.9063,80,211.9063,84,201.9063,80,205.9063" style="stroke: #A80036; stroke-width: 1.0;"/><!--
@startuml
start
:读出数据;
note right: 这时候数据一定在缓冲池中了
:更新缓冲池中的数据;
:满足条件，刷新回磁盘;
stop
@enduml

PlantUML version 1.2019.08(Sat Jul 13 19:25:14 UTC 2019)
(GPL source distribution)
Java Runtime: Java(TM) SE Runtime Environment
JVM: Java HotSpot(TM) 64-Bit Server VM
Java Version: 1.7.0_25-b15
Operating System: Linux
Default Encoding: UTF-8
Language: en
Country: US
--></g></svg>