<?xml version="1.0" encoding="UTF-8" standalone="no"?><svg xmlns="http://www.w3.org/2000/svg" xmlns:xlink="http://www.w3.org/1999/xlink" contentScriptType="application/ecmascript" contentStyleType="text/css" height="362px" preserveAspectRatio="none" style="width:217px;height:362px;" version="1.1" viewBox="0 0 217 362" width="217px" zoomAndPan="magnify"><defs><filter height="300%" id="fd5f5nyk3jrnt" width="300%" x="-1" y="-1"><feGaussianBlur result="blurOut" stdDeviation="2.0"/><feColorMatrix in="blurOut" result="blurOut2" type="matrix" values="0 0 0 0 0 0 0 0 0 0 0 0 0 0 0 0 0 0 .4 0"/><feOffset dx="4.0" dy="4.0" in="blurOut2" result="blurOut3"/><feBlend in="SourceGraphic" in2="blurOut3" mode="normal"/></filter></defs><g><ellipse cx="99" cy="20" fill="#000000" filter="url(#fd5f5nyk3jrnt)" rx="10" ry="10" style="stroke: none; stroke-width: 1.0;"/><rect fill="#FEFECE" filter="url(#fd5f5nyk3jrnt)" height="33.9688" rx="12.5" ry="12.5" style="stroke: #A80036; stroke-width: 1.5;" width="56" x="71" y="50"/><text fill="#000000" font-family="sans-serif" font-size="12" lengthAdjust="spacingAndGlyphs" textLength="36" x="81" y="71.1387">读数据</text><polygon fill="#FEFECE" filter="url(#fd5f5nyk3jrnt)" points="66,103.9688,132,103.9688,144,115.9688,132,127.9688,66,127.9688,54,115.9688,66,103.9688" style="stroke: #A80036; stroke-width: 1.5;"/><text fill="#000000" font-family="sans-serif" font-size="11" lengthAdjust="spacingAndGlyphs" textLength="66" x="66" y="119.7769">数据在缓冲池</text><text fill="#000000" font-family="sans-serif" font-size="11" lengthAdjust="spacingAndGlyphs" textLength="20" x="34" y="113.3745">yes</text><text fill="#000000" font-family="sans-serif" font-size="11" lengthAdjust="spacingAndGlyphs" textLength="14" x="144" y="113.3745">no</text><rect fill="#FEFECE" filter="url(#fd5f5nyk3jrnt)" height="33.9688" rx="12.5" ry="12.5" style="stroke: #A80036; stroke-width: 1.5;" width="68" x="10" y="137.9688"/><text fill="#000000" font-family="sans-serif" font-size="12" lengthAdjust="spacingAndGlyphs" textLength="48" x="20" y="159.1074">返回数据</text><rect fill="#FEFECE" filter="url(#fd5f5nyk3jrnt)" height="33.9688" rx="12.5" ry="12.5" style="stroke: #A80036; stroke-width: 1.5;" width="104" x="102" y="137.9688"/><text fill="#000000" font-family="sans-serif" font-size="12" lengthAdjust="spacingAndGlyphs" textLength="84" x="112" y="159.1074">从磁盘读取数据</text><rect fill="#FEFECE" filter="url(#fd5f5nyk3jrnt)" height="33.9688" rx="12.5" ry="12.5" style="stroke: #A80036; stroke-width: 1.5;" width="95" x="106.5" y="191.9375"/><text fill="#000000" font-family="sans-serif" font-size="12" lengthAdjust="spacingAndGlyphs" textLength="75" x="116.5" y="213.0762">"FIX"到缓冲池</text><rect fill="#FEFECE" filter="url(#fd5f5nyk3jrnt)" height="33.9688" rx="12.5" ry="12.5" style="stroke: #A80036; stroke-width: 1.5;" width="68" x="120" y="245.9063"/><text fill="#000000" font-family="sans-serif" font-size="12" lengthAdjust="spacingAndGlyphs" textLength="48" x="130" y="267.0449">返回数据</text><polygon fill="#FEFECE" filter="url(#fd5f5nyk3jrnt)" points="99,285.875,111,297.875,99,309.875,87,297.875,99,285.875" style="stroke: #A80036; stroke-width: 1.5;"/><ellipse cx="99" cy="340.875" fill="#FFFFFF" filter="url(#fd5f5nyk3jrnt)" rx="11" ry="11" style="stroke: #000000; stroke-width: 1.0;"/><ellipse cx="99" cy="340.875" fill="#000000" rx="6" ry="6" style="stroke: #7F7F7F; stroke-width: 1.0;"/><line style="stroke: #A80036; stroke-width: 1.5;" x1="99" x2="99" y1="30" y2="50"/><polygon fill="#A80036" points="95,40,99,50,103,40,99,44" style="stroke: #A80036; stroke-width: 1.0;"/><line style="stroke: #A80036; stroke-width: 1.5;" x1="154" x2="154" y1="171.9375" y2="191.9375"/><polygon fill="#A80036" points="150,181.9375,154,191.9375,158,181.9375,154,185.9375" style="stroke: #A80036; stroke-width: 1.0;"/><line style="stroke: #A80036; stroke-width: 1.5;" x1="154" x2="154" y1="225.9063" y2="245.9063"/><polygon fill="#A80036" points="150,235.9063,154,245.9063,158,235.9063,154,239.9063" style="stroke: #A80036; stroke-width: 1.0;"/><line style="stroke: #A80036; stroke-width: 1.5;" x1="54" x2="44" y1="115.9688" y2="115.9688"/><line style="stroke: #A80036; stroke-width: 1.5;" x1="44" x2="44" y1="115.9688" y2="137.9688"/><polygon fill="#A80036" points="40,127.9688,44,137.9688,48,127.9688,44,131.9688" style="stroke: #A80036; stroke-width: 1.0;"/><line style="stroke: #A80036; stroke-width: 1.5;" x1="144" x2="154" y1="115.9688" y2="115.9688"/><line style="stroke: #A80036; stroke-width: 1.5;" x1="154" x2="154" y1="115.9688" y2="137.9688"/><polygon fill="#A80036" points="150,127.9688,154,137.9688,158,127.9688,154,131.9688" style="stroke: #A80036; stroke-width: 1.0;"/><line style="stroke: #A80036; stroke-width: 1.5;" x1="44" x2="44" y1="171.9375" y2="297.875"/><line style="stroke: #A80036; stroke-width: 1.5;" x1="44" x2="87" y1="297.875" y2="297.875"/><polygon fill="#A80036" points="77,293.875,87,297.875,77,301.875,81,297.875" style="stroke: #A80036; stroke-width: 1.0;"/><line style="stroke: #A80036; stroke-width: 1.5;" x1="154" x2="154" y1="279.875" y2="297.875"/><line style="stroke: #A80036; stroke-width: 1.5;" x1="154" x2="111" y1="297.875" y2="297.875"/><polygon fill="#A80036" points="121,293.875,111,297.875,121,301.875,117,297.875" style="stroke: #A80036; stroke-width: 1.0;"/><line style="stroke: #A80036; stroke-width: 1.5;" x1="99" x2="99" y1="83.9688" y2="103.9688"/><polygon fill="#A80036" points="95,93.9688,99,103.9688,103,93.9688,99,97.9688" style="stroke: #A80036; stroke-width: 1.0;"/><line style="stroke: #A80036; stroke-width: 1.5;" x1="99" x2="99" y1="309.875" y2="329.875"/><polygon fill="#A80036" points="95,319.875,99,329.875,103,319.875,99,323.875" style="stroke: #A80036; stroke-width: 1.0;"/><!--
@startuml
start
:读数据;
if (数据在缓冲池) then (yes)
    :返回数据;
else (no)
    :从磁盘读取数据;
    :"FIX"到缓冲池;
    :返回数据;
endif
stop
@enduml

PlantUML version 1.2019.08(Sat Jul 13 19:25:14 UTC 2019)
(GPL source distribution)
Java Runtime: Java(TM) SE Runtime Environment
JVM: Java HotSpot(TM) 64-Bit Server VM
Java Version: 1.7.0_25-b15
Operating System: Linux
Default Encoding: UTF-8
Language: en
Country: US
--></g></svg>